<svg xmlns="http://www.w3.org/2000/svg" data-name="Layer 1" viewBox="0 0 98 122.5" x="0px" y="0px"><defs><style>
      .cls-1 {
        fill-rule: evenodd;
        stroke-width: 0px;
      }
    </style></defs><path class="cls-1" d="m88.947,79.686c-5.052,3.836-13.925,3.983-24.258,1.121-8.795,15.29-22.582,15.29-31.377,0-10.333,2.862-19.206,2.715-24.258-1.121-4.033-3.062-5.008-7.897-3.642-13.387,1.424-5.722,5.271-11.829,9.932-17.298-4.661-5.468-8.509-11.578-9.932-17.299-1.366-5.49-.391-10.325,3.642-13.387,5.052-3.836,13.925-3.983,24.258-1.121,8.795-15.29,22.582-15.29,31.377,0,10.333-2.862,19.206-2.715,24.258,1.121,4.033,3.062,5.008,7.897,3.642,13.387-1.424,5.722-5.271,11.829-9.932,17.298,4.661,5.468,8.509,11.578,9.932,17.299,1.366,5.49.391,10.325-3.642,13.387h0Zm-39.947-37.258c-1.84-3.681-3.681-5.521-7.361-5.521-4.063,0-7.361,3.298-7.361,7.361,0,7.361,7.361,14.722,14.722,22.084,7.361-7.361,14.722-14.722,14.722-22.084,0-4.063-3.298-7.361-7.361-7.361-3.681,0-5.521,1.84-7.361,5.521h0Zm-16.71,36.488c-2.633-5.188-4.588-11.634-5.594-18.812-3.763-3.133-7.098-6.335-9.958-9.512-4.37,5.172-7.97,10.905-9.289,16.208-1.162,4.67-.463,8.688,2.869,11.218,4.432,3.365,12.459,3.462,21.971.898h0Zm33.42-59.833c2.633,5.188,4.588,11.634,5.594,18.812,3.763,3.133,7.098,6.335,9.958,9.512,4.37-5.172,7.97-10.905,9.289-16.208,1.162-4.67.463-8.688-2.869-11.218-4.432-3.365-12.459-3.462-21.971-.898h0Zm15.551,31.508c-2.859,3.177-6.194,6.379-9.957,9.512-1.005,7.179-2.961,13.624-5.594,18.812,9.512,2.563,17.539,2.467,21.971-.898,3.332-2.53,4.032-6.548,2.869-11.218-1.319-5.301-4.92-11.037-9.289-16.208h0Zm-12.389,11.478c-5.613,4.413-11.583,8.267-17.541,11.412,4.225,2.02,8.38,3.648,12.327,4.843,2.343-4.506,4.148-10.053,5.214-16.255h0Zm-19.873,12.608c-4.661,2.317-9.257,4.176-13.615,5.525,7.886,13.281,19.344,13.281,27.23,0-4.358-1.349-8.955-3.208-13.615-5.525h0Zm-32.262-27.27c2.859-3.177,6.194-6.379,9.957-9.512,1.005-7.179,2.961-13.624,5.594-18.812-9.512-2.563-17.539-2.467-21.971.898-3.332,2.53-4.032,6.548-2.869,11.218,1.319,5.301,4.92,11.037,9.289,16.208h0Zm12.389-11.478c5.613-4.413,11.583-8.267,17.541-11.412-4.225-2.02-8.38-3.648-12.327-4.843-2.343,4.506-4.148,10.053-5.214,16.255h0Zm19.873-12.608c4.661-2.317,9.257-4.176,13.615-5.525-7.886-13.281-19.344-13.281-27.23,0,4.358,1.349,8.955,3.208,13.615,5.525h0Zm14.659-3.647c-3.947,1.195-8.102,2.822-12.327,4.843,5.955,3.143,11.93,7,17.541,11.412-1.066-6.202-2.871-11.749-5.214-16.255h0Zm-14.659,5.994c-5.714,2.911-11.511,6.52-17.058,10.732-1.124.853-2.215,1.714-3.272,2.581-.412,3.207-.631,6.562-.631,10.019s.219,6.812.631,10.019c1.057.867,2.148,1.727,3.272,2.581,5.547,4.212,11.344,7.821,17.059,10.732,5.714-2.911,11.511-6.52,17.058-10.732,1.124-.853,2.215-1.714,3.272-2.581.412-3.207.631-6.562.631-10.019s-.219-6.812-.631-10.019c-1.057-.867-2.148-1.727-3.272-2.581-5.547-4.212-11.344-7.821-17.059-10.732h0Zm-22.67,15.286c-3.067,2.665-5.813,5.366-8.208,8.045,2.395,2.679,5.141,5.38,8.207,8.045-.527-5.297-.527-10.793,0-16.09h0Zm8.011,37.37c3.947-1.195,8.102-2.822,12.327-4.843-5.955-3.143-11.93-7-17.541-11.412,1.066,6.202,2.871,11.749,5.214,16.255h0Zm37.329-21.28c3.067-2.665,5.813-5.366,8.208-8.045-2.395-2.679-5.141-5.38-8.207-8.045.527,5.297.527,10.793,0,16.09Z"/><text x="0" y="113" fill="#000000" font-size="5px" font-weight="bold" font-family="'Helvetica Neue', Helvetica, Arial-Unicode, Arial, Sans-serif">Created by syafii5758</text><text x="0" y="118" fill="#000000" font-size="5px" font-weight="bold" font-family="'Helvetica Neue', Helvetica, Arial-Unicode, Arial, Sans-serif">from the Noun Project</text></svg>