<svg xmlns="http://www.w3.org/2000/svg" version="1.1" viewBox="-5.0 -10.0 110.0 135.0">
 <g>
  <path d="m65.934 32.93c-10.266-3.9062-21.602-3.9062-31.867 0-8.75 5.4805-14.066 15.078-14.066 25.402 0 10.328 5.3164 19.926 14.066 25.406 10.266 3.9062 21.602 3.9062 31.867 0 8.75-5.4805 14.066-15.078 14.066-25.406 0-10.324-5.3164-19.922-14.066-25.402zm-15.934 43.738c-4.8594-0.007813-9.5195-1.9414-12.957-5.3789-3.4375-3.4336-5.3711-8.0938-5.375-12.957 0-1.6016 0.21094-3.1953 0.62109-4.7422 0.15234-0.58984 0.61328-1.0469 1.2031-1.1953 0.58984-0.14844 1.2148 0.035157 1.6289 0.48047 2.6055 2.6055 6.8281 2.6055 9.4297 0 2.6055-2.6016 2.6055-6.8242 0-9.4297-0.44531-0.41406-0.62891-1.0352-0.48047-1.625 0.14844-0.58984 0.60547-1.0547 1.1953-1.207 1.543-0.40625 3.1367-0.61328 4.7344-0.61328 6.5508 0 12.602 3.4961 15.879 9.168 3.2734 5.6719 3.2734 12.66 0 18.332-3.2773 5.6719-9.3281 9.168-15.879 9.168z"/>
  <path d="m96.363 57.398c-5.3438-7.457-11.988-13.883-19.613-18.977 4.2734 5.7578 6.582 12.738 6.582 19.91s-2.3086 14.156-6.582 19.914c7.625-5.0938 14.27-11.523 19.613-18.973 0.40625-0.55859 0.40625-1.3203 0-1.875z"/>
  <path d="m23.25 38.422c-7.625 5.0938-14.27 11.52-19.613 18.973-0.40625 0.55859-0.40625 1.3164 0 1.8789 5.3438 7.4492 11.988 13.875 19.613 18.969-4.2734-5.7578-6.582-12.738-6.582-19.91s2.3086-14.152 6.582-19.91z"/>
  <path d="m50 43.332c-0.4375 0-0.87109 0.019531-1.3008 0.054688 2.2188 3.918 1.5508 8.832-1.6328 12.016-3.1797 3.1797-8.0938 3.8477-12.012 1.6328-0.035157 0.42969-0.054688 0.86328-0.054688 1.3008v-0.003907c0 3.9805 1.582 7.793 4.3945 10.609 2.8125 2.8125 6.6289 4.3906 10.605 4.3906s7.793-1.5781 10.605-4.3906c2.8125-2.8164 4.3945-6.6289 4.3945-10.609 0-3.9766-1.582-7.793-4.3945-10.605s-6.6289-4.3945-10.605-4.3945z"/>
  <path d="m50 23.332c0.44141 0 0.86719-0.17578 1.1797-0.48828s0.48828-0.73438 0.48828-1.1758v-10c0-0.92188-0.74609-1.668-1.668-1.668s-1.668 0.74609-1.668 1.668v10c0 0.44141 0.17578 0.86328 0.48828 1.1758s0.73828 0.48828 1.1797 0.48828z"/>
  <path d="m33.48 25.559c0.39453 0.80859 1.3594 1.1562 2.1797 0.78906 0.82031-0.36719 1.2031-1.3203 0.85938-2.1562l-4.0898-9.125c-0.39453-0.80859-1.3594-1.1562-2.1797-0.78906-0.82031 0.36719-1.2031 1.3203-0.85938 2.1562z"/>
  <path d="m64.316 26.395c0.83984 0.37891 1.8242 0.003907 2.2031-0.83203l4.0898-9.125c0.34375-0.83203-0.039063-1.7891-0.85938-2.1562s-1.7852-0.015625-2.1797 0.79297l-4.0898 9.125c-0.375 0.83594 0 1.8203 0.83594 2.1953z"/>
 </g>
<text x="0.0" y="117.5" font-size="5.0" font-weight="bold" font-family="Arbeit Regular, Helvetica, Arial-Unicode, Arial, Sans-serif" fill="#000000">Created by Juicy Fish</text><text x="0.0" y="122.5" font-size="5.0" font-weight="bold" font-family="Arbeit Regular, Helvetica, Arial-Unicode, Arial, Sans-serif" fill="#000000">from Noun Project</text></svg>