<svg id="Layer_1" data-name="Layer 1" xmlns="http://www.w3.org/2000/svg" viewBox="0 0 12 11.61"><defs><style>.cls-1{fill:#f68b21;}</style></defs><title>feature_2_1</title><path class="cls-1" d="M45.63,64.64v1l-2,1.94a.29.29,0,0,0,0,.41A.3.3,0,0,0,44,68h0l2-1.94h1.07a.31.31,0,0,0,.22-.09l1.79-1.74a.28.28,0,0,0,0-.41.3.3,0,0,0-.21-.08H48V62.9a.29.29,0,0,0-.3-.29.32.32,0,0,0-.21.08l-1.8,1.74A.33.33,0,0,0,45.63,64.64Z" transform="translate(-37.83 -62.02)"/><path class="cls-1" d="M49.13,65.1l-.9.87a4.59,4.59,0,0,1-2.47,6.12,4.87,4.87,0,0,1-6.33-2.39,4.6,4.6,0,0,1,2.48-6.12,5,5,0,0,1,3.85,0l.9-.87a6.1,6.1,0,0,0-8.12,2.39A5.71,5.71,0,0,0,41,73a6.1,6.1,0,0,0,8.12-2.39A5.64,5.64,0,0,0,49.13,65.1Z" transform="translate(-37.83 -62.02)"/><path class="cls-1" d="M45,64.64A.83.83,0,0,1,45.3,64a4.27,4.27,0,0,0-5.42,2.39,4,4,0,0,0,2.47,5.25,4.25,4.25,0,0,0,5.42-2.39,4,4,0,0,0,0-2.85.93.93,0,0,1-.64.25h-.55A2.86,2.86,0,0,1,45,70.5a3,3,0,0,1-4-1.5,2.88,2.88,0,0,1,1.55-3.83,3.17,3.17,0,0,1,2.42,0Z" transform="translate(-37.83 -62.02)"/><path class="cls-1" d="M44.77,65.69a2.42,2.42,0,0,0-3.14,1.23,2.29,2.29,0,0,0,1.27,3A2.42,2.42,0,0,0,46,68.73a2.2,2.2,0,0,0,0-1.81l-1.57,1.52a.92.92,0,0,1-1.27,0,.85.85,0,0,1,0-1.23h0Z" transform="translate(-37.83 -62.02)"/></svg>