<?xml version="1.0" encoding="utf-8"?>
<!-- Generator: Adobe Illustrator 26.0.1, SVG Export Plug-In . SVG Version: 6.00 Build 0)  -->
<svg version="1.1" id="Layer_1" xmlns="http://www.w3.org/2000/svg" xmlns:xlink="http://www.w3.org/1999/xlink" x="0px" y="0px"
	 viewBox="0 0 612 612" style="enable-background:new 0 0 612 612;" xml:space="preserve">
<style type="text/css">
	.st0{fill:#FFFFFF;}
	.st1{fill:#1D1D3B;}
	.st2{font-family:'Rockwell-ExtraBold';}
	.st3{font-size:100px;}
	.st4{fill:#1B1D3A;}
	.st5{fill:#F26922;}
	.st6{fill:#F26722;}
	.st7{fill:#2BB0E4;}
	.st8{fill:#FFFFFF;stroke:#010101;stroke-width:0.25;stroke-miterlimit:10;}
	.st9{opacity:0.61;fill:#FFFFFF;}
	.st10{opacity:0.82;fill:#FFFFFF;}
</style>
<path class="st0" d="M283.64,268.63c0,0,0.23-2.36,1.83-3.17C285.47,265.46,286.46,267.09,283.64,268.63z"/>
<path class="st1" d="M283.64,257.66c0,0,5.32,3.37,0,4.72V257.66z"/>
<text transform="matrix(1 0 0 1 11.2273 294.1056)" class="st1 st2 st3">NI</text>
<g>
	<text transform="matrix(1 0 0 1 304.8191 293.3757)" class="st1 st2 st3">SONS</text>
</g>
<path class="st4" d="M220.48,223.22c0,0-21.58-16.82-49.49-1.78s-24.86,53.01-24.86,53.01s2.58,27.51,26.97,40.64
	c24.39,13.13,42.61,0.59,43.16,0.59c0.63-0.59,8.44-2.75,19.47-19.06c0,0-16.37,14.46-20.64,15.8c-4.27,1.34-17.59,7.65-37.29-3.31
	c-19.7-10.96-22.75-37.72-22.75-37.72s-3.28-25.23,19-44.85S220.48,223.22,220.48,223.22z"/>
<path class="st5" d="M166.54,241.82c0,0,22.75-31.86,55.12-12.49l-11.73,5.1C209.93,234.43,188.58,219.4,166.54,241.82z"/>
<path class="st5" d="M228.92,296.87c0,0-26.5,33.9-58.17,0c0,0,22.05,20.64,45.74,0H228.92z"/>
<path class="st6" d="M212.51,238l3.28-1.02l13.13,4.84l15.71-9.37l-21.7-18.41l4.11-2.04l28.85,13.51l13.13-6.88
	c0,0,9.62-4.84,17.83-1.02L224.7,251v-5.61L212.51,238z"/>
<polygon class="st7" points="227.28,252.27 285.68,220.93 281.46,225.26 "/>
<path class="st1" d="M163.25,265.78h7.51l3.05,3.57h47.85v10.45l24.63-2.55c0,0,4.93,0.25,4.46-4.46s0.03-28.42,0.03-28.42
	s15.68-4.59,24.83,3.57c0,0,9.15,3.57,10.09,7.65l-13.13,0.76c0,0-1.59,0.59-2.48-0.88c-0.89-1.47-3.34-6.23-11-6.46
	c0,0-2.66,0.57-2.81-1.87l0.22-1.98c0,0-1-0.23-1.32,1.7c-0.31,1.93,0.16,29.22,0.16,29.22s-0.73,3.91,3.18,4.08
	c0,0-1.51-0.85-1.56-4.02S256.68,251,256.68,251s10.27-3.61,14.65,10.63c0,0-5.79-9.21-12.82-8.59l0.05,12.8c0,0-0.1,3.62,3.02,3.91
	s7.71-0.85,7.71-0.85l-0.73,2.27l1.82-1.25c0,0,0.52-1.02,3.96-1.13c3.44-0.11,7.92,0.11,7.92,7.02s0.05,4.36,0.05,4.36
	s-5.21-13.76-16.31-2.78c0,0-1.2,4.02-5.94,4.02c-4.74,0-8.7,0-8.7,0s-1.93,0.62,0.42,1.53l12.3-0.4c0,0-0.47,5.95,0.89,6.97
	c0,0-1.51-11.89,3.8-11.78c5.32,0.11,5.32,3.85,5.32,3.85s0.16,2.1,2.92,2.04c2.76-0.06,4.01-0.17,4.01-0.17s1.56,0.23,1.88,1.08
	c0.31,0.85,0.1,1.76,2.79,1.87c2.68,0.11,8.78-0.74,8.78-0.74s2.19-0.51,3.08-3.06s2.61-2.1,2.61-2.1s0.94,8.66-2.14,9
	c0,0-0.68,0.51,0.1,0.85c0.78,0.34,2.87,1.59-2.24,2.89c-5.11,1.3-23.87,0.74-23.87,0.74l-21.42-0.17l-81.88-0.06
	c0,0-3.23-0.23,0.83-1.08c4.07-0.85,9.96-0.91,9.96-0.91S171.93,272.12,163.25,265.78z"/>
<path class="st6" d="M224.47,256.35l23.45-9.17v22.94c0,0,0,4.33-3.28,4.84s-20.17,2.55-20.17,2.55V256.35z"/>
<g>
	<rect x="197.69" y="241.82" class="st1" width="13.37" height="7.9"/>
	<path class="st0" d="M199.08,243.18c0,0-0.51,0.17-0.63-0.34c-0.12-0.51,0.04-0.68,0.63-0.59c0.59,0.08,11.65-0.02,11.65-0.02v6.31
		h-0.86l-0.04-5.35H199.08z"/>
</g>
<rect x="182.02" y="241.82" class="st1" width="13.37" height="7.9"/>
<g>
	<rect x="190.54" y="250.51" class="st1" width="13.37" height="7.9"/>
	<path class="st0" d="M191.92,251.87c0,0-0.51,0.17-0.63-0.34c-0.12-0.51,0.04-0.68,0.63-0.59c0.59,0.08,11.65-0.02,11.65-0.02v6.31
		h-0.86l-0.04-5.35H191.92z"/>
</g>
<g>
	<rect x="204.96" y="250.51" class="st1" width="13.37" height="7.9"/>
	<path class="st0" d="M206.35,251.87c0,0-0.51,0.17-0.63-0.34c-0.12-0.51,0.04-0.68,0.63-0.59c0.59,0.08,11.65-0.02,11.65-0.02v6.31
		h-0.86l-0.04-5.35H206.35z"/>
</g>
<g>
	<rect x="190.54" y="259.62" class="st1" width="13.37" height="7.9"/>
	<path class="st0" d="M191.92,260.98c0,0-0.51,0.17-0.63-0.34c-0.12-0.51,0.04-0.68,0.63-0.59c0.59,0.08,11.65-0.02,11.65-0.02v6.31
		h-0.86l-0.04-5.35H191.92z"/>
</g>
<g>
	<rect x="204.96" y="259.62" class="st1" width="13.37" height="7.9"/>
	<path class="st0" d="M206.35,260.98c0,0-0.51,0.17-0.63-0.34c-0.12-0.51,0.04-0.68,0.63-0.59c0.59,0.08,11.65-0.02,11.65-0.02v6.31
		h-0.86l-0.04-5.35H206.35z"/>
</g>
<g>
	<rect x="175.33" y="259.62" class="st1" width="13.37" height="7.9"/>
	<path class="st0" d="M176.72,260.98c0,0-0.51,0.17-0.63-0.34c-0.12-0.51,0.04-0.68,0.63-0.59c0.59,0.08,11.65-0.02,11.65-0.02v6.31
		h-0.86l-0.04-5.35H176.72z"/>
</g>
<rect x="175" y="250.51" class="st1" width="13.37" height="7.9"/>
<ellipse class="st0" cx="235" cy="286.55" rx="2.89" ry="5.48"/>
<ellipse class="st0" cx="242.14" cy="286.28" rx="2.89" ry="5.48"/>
<ellipse class="st1" cx="234.47" cy="286.42" rx="0.86" ry="1.53"/>
<path class="st1" d="M234.47,282.77c0,0,2.62,2.97,0.53,7.73C235,290.5,239.79,284.13,234.47,282.77z"/>
<path class="st1" d="M242.67,290.29c0,0,4.79-6.37-0.53-7.73C242.14,282.56,244.76,285.53,242.67,290.29"/>
<ellipse class="st1" cx="241.9" cy="286.28" rx="0.86" ry="1.53"/>
<path class="st8" d="M251.36,284.04h11.73v4.67l-8.13-0.76C254.96,287.95,251.05,288.12,251.36,284.04z"/>
<ellipse class="st0" cx="269.22" cy="285.02" rx="2.89" ry="5.48"/>
<path class="st1" d="M269.75,289.03c0,0,4.79-6.37-0.53-7.73C269.22,281.3,271.84,284.27,269.75,289.03"/>
<ellipse class="st1" cx="268.98" cy="285.02" rx="0.86" ry="1.53"/>
<path class="st0" d="M276.61,284.89l5,0.13v2.25C281.62,287.27,276.61,287.02,276.61,284.89z"/>
<path class="st0" d="M283.73,287.95l11.81-0.68c0,0,0.84-0.13,1,0.34v0.34c0,0,0.1,0.66-0.88,0.62s-11.92,0.66-11.92,0.66
	s-1.76,0.19-1.58-0.3l-0.01-0.42C282.13,288.5,282.15,287.89,283.73,287.95z"/>
<path class="st1" d="M271.06,257.51l15.32-0.68c0,0,4.8-0.34,5,8.72l-14.28,1.25c0,0-3.54,0.68-3.86-1.13
	C272.94,263.85,271.06,257.51,271.06,257.51z"/>
<path class="st1" d="M259.7,264.99c0,0-0.42,2.61,2.5,2.49c2.92-0.11,9.53-0.55,9.53-0.55s-0.29-8.28-12.05-12.24L259.7,264.99z"/>
<path class="st1" d="M278.36,267.48c0,0,19.88-3.51,18.17,4.07l-0.45,9.74c0,0,0,2.32-1.15,2.74l0.1-13.05
	c0,0-1.15,13.05-2.92,13.44l-1.25-12.98l-0.63,13.45c0,0-2.05,1.07-2.75-4.09s-1.82-8.9-1.82-8.9l1.17,12.53
	c0,0-2.87,0.84-2.87-4.88C283.99,273.82,283.47,269.3,278.36,267.48z"/>
<path class="st1" d="M272.11,275.83c0,0,3.43,3.77,3.43,5.24s2.19,1.49,2.19,1.49h3.49c0,0,0.56-1.96-2.87-2.51
	c-3.42-0.55,0-1.81,0-1.81S278.79,275.79,272.11,275.83z"/>
<ellipse class="st0" cx="264.1" cy="247.16" rx="1.36" ry="1.47"/>
<ellipse class="st0" cx="267.64" cy="247.23" rx="1.36" ry="1.47"/>
<ellipse class="st0" cx="271.06" cy="247.18" rx="1.36" ry="1.47"/>
<path class="st9" d="M203.91,224.89c0,0,7.95-0.11,12.43,3.28l-5.28-0.68C211.06,227.5,210.87,226.48,203.91,224.89z"/>
<path class="st10" d="M269.84,220.02c0,0,8.94-4.98,13.11-2.27L269.84,220.02z"/>
<path class="st0" d="M246.36,259.62v9.67c0,0,0.43,4.19-4.21,4.87l-12.99,1.67l12.74-2.35c0,0,3-0.91,3.73-4.42
	S246.36,259.62,246.36,259.62z"/>
</svg>
